{
  "accessors": [
    {
      "bufferView": 2,
      "componentType": 5126,
      "count": 395,
      "max": [
        1.0789504051208496,
        1.0,
        0.9807852506637573
      ],
      "min": [
        -1.0789499282836914,
        -1.0000003576278687,
        -0.5317090153694153
      ],
      "type": "VEC3"
    },
    {
      "bufferView": 2,
      "byteOffset": 4740,
      "componentType": 5126,
      "count": 395,
      "max": [
        0.9909635186195374,
        0.9999983310699463,
        1.0
      ],
      "min": [
        -0.9909635186195374,
        -0.9999983310699463,
        -0.8835732340812683
      ],
      "type": "VEC3"
    },
    {
      "bufferView": 1,
      "componentType": 5126,
      "count": 395,
      "max": [
        1.000000238418579,
        1.0
      ],
      "min": [
        0.0,
        0.31249988079071045
      ],
      "type": "VEC2"
    },
    {
      "bufferView": 0,
      "componentType": 5125,
      "count": 2106,
      "type": "SCALAR"
    },
    {
      "bufferView": 2,
      "byteOffset": 9480,
      "componentType": 5126,
      "count": 1042,
      "max": [
        1.1112070083618164,
        1.0,
        0.9421671628952026
      ],
      "min": [
        -1.0204143524169922,
        -1.0000001192092896,
        -1.3059982061386108
      ],
      "type": "VEC3"
    },
    {
      "bufferView": 2,
      "byteOffset": 21984,
      "componentType": 5126,
      "count": 1042,
      "max": [
        0.9984030723571777,
        0.9983997941017151,
        0.7015151977539063
      ],
      "min": [
        -0.9984030723571777,
        -0.9983980059623718,
        -0.998638927936554
      ],
      "type": "VEC3"
    },
    {
      "bufferView": 1,
      "byteOffset": 3160,
      "componentType": 5126,
      "count": 1042,
      "max": [
        1.0,
        1.0
      ],
      "min": [
        0.0,
        0.01000000536441803
      ],
      "type": "VEC2"
    },
    {
      "bufferView": 0,
      "byteOffset": 8424,
      "componentType": 5125,
      "count": 4788,
      "type": "SCALAR"
    },
    {
      "bufferView": 2,
      "byteOffset": 34488,
      "componentType": 5126,
      "count": 197,
      "max": [
        0.3399415612220764,
        0.10722357034683228,
        1.0
      ],
      "min": [
        -0.36168432235717773,
        -0.10722380876541138,
        0.5555701851844788
      ],
      "type": "VEC3"
    },
    {
      "bufferView": 2,
      "byteOffset": 36852,
      "componentType": 5126,
      "count": 197,
      "max": [
        0.9982113242149353,
        0.9916271567344666,
        1.0
      ],
      "min": [
        -0.997586727142334,
        -0.9916271567344666,
        -0.6989883184432983
      ],
      "type": "VEC3"
    },
    {
      "bufferView": 1,
      "byteOffset": 11496,
      "componentType": 5126,
      "count": 197,
      "max": [
        1.000000238418579,
        1.0
      ],
      "min": [
        0.0,
        0.6874999403953552
      ],
      "type": "VEC2"
    },
    {
      "bufferView": 0,
      "byteOffset": 27576,
      "componentType": 5125,
      "count": 954,
      "type": "SCALAR"
    },
    {
      "bufferView": 2,
      "byteOffset": 39216,
      "componentType": 5126,
      "count": 11776,
      "max": [
        0.9462831616401672,
        0.9812590479850769,
        1.0932140350341797
      ],
      "min": [
        -0.9716589450836182,
        -3.9316859245300293,
        -3.4468348026275635
      ],
      "type": "VEC3"
    },
    {
      "bufferView": 2,
      "byteOffset": 180528,
      "componentType": 5126,
      "count": 11776,
      "max": [
        0.9991207122802734,
        0.9998235106468201,
        0.999844491481781
      ],
      "min": [
        -0.9991193413734436,
        -0.9994018077850342,
        -0.9999333620071411
      ],
      "type": "VEC3"
    },
    {
      "bufferView": 1,
      "byteOffset": 13072,
      "componentType": 5126,
      "count": 11776,
      "max": [
        0.8750001192092896,
        1.0000001192092896
      ],
      "min": [
        0.125,
        0.0
      ],
      "type": "VEC2"
    },
    {
      "bufferView": 0,
      "byteOffset": 31392,
      "componentType": 5125,
      "count": 17664,
      "type": "SCALAR"
    },
    {
      "bufferView": 2,
      "byteOffset": 321840,
      "componentType": 5126,
      "count": 11776,
      "max": [
        0.9462831616401672,
        0.9812590479850769,
        1.0932140350341797
      ],
      "min": [
        -0.9716589450836182,
        -3.9316859245300293,
        -3.4468348026275635
      ],
      "type": "VEC3"
    },
    {
      "bufferView": 2,
      "byteOffset": 463152,
      "componentType": 5126,
      "count": 11776,
      "max": [
        0.9991207122802734,
        0.9998235106468201,
        0.999844491481781
      ],
      "min": [
        -0.9991193413734436,
        -0.9994018077850342,
        -0.9999333620071411
      ],
      "type": "VEC3"
    },
    {
      "bufferView": 1,
      "byteOffset": 107280,
      "componentType": 5126,
      "count": 11776,
      "max": [
        0.8750001192092896,
        1.0000001192092896
      ],
      "min": [
        0.125,
        0.0
      ],
      "type": "VEC2"
    },
    {
      "bufferView": 0,
      "byteOffset": 102048,
      "componentType": 5125,
      "count": 17664,
      "type": "SCALAR"
    },
    {
      "bufferView": 2,
      "byteOffset": 604464,
      "componentType": 5126,
      "count": 11776,
      "max": [
        0.9462831616401672,
        0.9812590479850769,
        1.0932140350341797
      ],
      "min": [
        -0.9716589450836182,
        -3.9316859245300293,
        -3.4468348026275635
      ],
      "type": "VEC3"
    },
    {
      "bufferView": 2,
      "byteOffset": 745776,
      "componentType": 5126,
      "count": 11776,
      "max": [
        0.9991207122802734,
        0.9998235106468201,
        0.999844491481781
      ],
      "min": [
        -0.9991193413734436,
        -0.9994018077850342,
        -0.9999333620071411
      ],
      "type": "VEC3"
    },
    {
      "bufferView": 1,
      "byteOffset": 201488,
      "componentType": 5126,
      "count": 11776,
      "max": [
        0.8750001192092896,
        1.0000001192092896
      ],
      "min": [
        0.125,
        0.0
      ],
      "type": "VEC2"
    },
    {
      "bufferView": 0,
      "byteOffset": 172704,
      "componentType": 5125,
      "count": 17664,
      "type": "SCALAR"
    },
    {
      "bufferView": 2,
      "byteOffset": 887088,
      "componentType": 5126,
      "count": 262,
      "max": [
        0.9159952402114868,
        0.9350447654724121,
        0.885626494884491
      ],
      "min": [
        -0.8242141008377075,
        -0.9045445919036865,
        -0.8347938060760498
      ],
      "type": "VEC3"
    },
    {
      "bufferView": 2,
      "byteOffset": 890232,
      "componentType": 5126,
      "count": 262,
      "max": [
        0.9749199151992798,
        0.9743950963020325,
        0.9182952046394348
      ],
      "min": [
        -0.971808910369873,
        -0.9668635725975037,
        -0.6190412044525146
      ],
      "type": "VEC3"
    },
    {
      "bufferView": 1,
      "byteOffset": 295696,
      "componentType": 5126,
      "count": 262,
      "max": [
        1.0,
        1.0
      ],
      "min": [
        0.0,
        0.01000000536441803
      ],
      "type": "VEC2"
    },
    {
      "bufferView": 0,
      "byteOffset": 243360,
      "componentType": 5125,
      "count": 1140,
      "type": "SCALAR"
    },
    {
      "bufferView": 2,
      "byteOffset": 893376,
      "componentType": 5126,
      "count": 6586,
      "max": [
        1.0,
        1.0,
        1.0000553131103516
      ],
      "min": [
        -1.0,
        -1.0,
        0.33525654673576355
      ],
      "type": "VEC3"
    },
    {
      "bufferView": 2,
      "byteOffset": 972408,
      "componentType": 5126,
      "count": 6586,
      "max": [
        1.0,
        0.9999998807907104,
        0.9999990463256836
      ],
      "min": [
        -1.0,
        -0.9999998807907104,
        -0.9898164868354797
      ],
      "type": "VEC3"
    },
    {
      "bufferView": 1,
      "byteOffset": 297792,
      "componentType": 5126,
      "count": 6586,
      "max": [
        1.0,
        1.0
      ],
      "min": [
        0.0,
        0.010013008490204811
      ],
      "type": "VEC2"
    },
    {
      "bufferView": 0,
      "byteOffset": 247920,
      "componentType": 5125,
      "count": 36570,
      "type": "SCALAR"
    }
  ],
  "asset": {
    "extras": {
      "author": "omarN6 (https://sketchfab.com/omarN6)",
      "license": "CC-BY-4.0 (http://creativecommons.org/licenses/by/4.0/)",
      "source": "https://sketchfab.com/3d-models/rocket-without-texture-7c01e5d630a240edb2735d452cd4c998",
      "title": "Rocket Without Texture"
    },
    "generator": "Sketchfab-12.66.0",
    "version": "2.0"
  },
  "bufferViews": [
    {
      "buffer": 0,
      "byteLength": 394200,
      "name": "floatBufferViews",
      "target": 34963
    },
    {
      "buffer": 0,
      "byteLength": 350480,
      "byteOffset": 394200,
      "byteStride": 8,
      "name": "floatBufferViews",
      "target": 34962
    },
    {
      "buffer": 0,
      "byteLength": 1051440,
      "byteOffset": 744680,
      "byteStride": 12,
      "name": "floatBufferViews",
      "target": 34962
    }
  ],
  "buffers": [
    {
      "byteLength": 1796120,
      "uri": "scene.bin"
    }
  ],
  "materials": [
    {
      "doubleSided": true,
      "name": "Scene_-_Root",
      "pbrMetallicRoughness": {
        "metallicFactor": 0.0,
        "roughnessFactor": 0.6
      }
    }
  ],
  "meshes": [
    {
      "name": "Sphere__0",
      "primitives": [
        {
          "attributes": {
            "NORMAL": 1,
            "POSITION": 0,
            "TEXCOORD_0": 2
          },
          "indices": 3,
          "material": 0,
          "mode": 4
        }
      ]
    },
    {
      "name": "Cylinder__0",
      "primitives": [
        {
          "attributes": {
            "NORMAL": 5,
            "POSITION": 4,
            "TEXCOORD_0": 6
          },
          "indices": 7,
          "material": 0,
          "mode": 4
        }
      ]
    },
    {
      "name": "Sphere.001__0",
      "primitives": [
        {
          "attributes": {
            "NORMAL": 9,
            "POSITION": 8,
            "TEXCOORD_0": 10
          },
          "indices": 11,
          "material": 0,
          "mode": 4
        }
      ]
    },
    {
      "name": "Cube.001__0",
      "primitives": [
        {
          "attributes": {
            "NORMAL": 13,
            "POSITION": 12,
            "TEXCOORD_0": 14
          },
          "indices": 15,
          "material": 0,
          "mode": 4
        }
      ]
    },
    {
      "name": "Cube.002__0",
      "primitives": [
        {
          "attributes": {
            "NORMAL": 17,
            "POSITION": 16,
            "TEXCOORD_0": 18
          },
          "indices": 19,
          "material": 0,
          "mode": 4
        }
      ]
    },
    {
      "name": "Cube.003__0",
      "primitives": [
        {
          "attributes": {
            "NORMAL": 21,
            "POSITION": 20,
            "TEXCOORD_0": 22
          },
          "indices": 23,
          "material": 0,
          "mode": 4
        }
      ]
    },
    {
      "name": "Cylinder.002__0",
      "primitives": [
        {
          "attributes": {
            "NORMAL": 25,
            "POSITION": 24,
            "TEXCOORD_0": 26
          },
          "indices": 27,
          "material": 0,
          "mode": 4
        }
      ]
    },
    {
      "name": "Cylinder.003__0",
      "primitives": [
        {
          "attributes": {
            "NORMAL": 29,
            "POSITION": 28,
            "TEXCOORD_0": 30
          },
          "indices": 31,
          "material": 0,
          "mode": 4
        }
      ]
    }
  ],
  "nodes": [
    {
      "children": [
        1
      ],
      "matrix": [
        1.0,
        0.0,
        0.0,
        0.0,
        0.0,
        2.220446049250313e-16,
        -1.0,
        0.0,
        0.0,
        1.0,
        2.220446049250313e-16,
        0.0,
        0.0,
        0.0,
        0.0,
        1.0
      ],
      "name": "Sketchfab_model"
    },
    {
      "children": [
        2
      ],
      "matrix": [
        1.0,
        0.0,
        0.0,
        0.0,
        0.0,
        0.0,
        1.0,
        0.0,
        0.0,
        -1.0,
        0.0,
        0.0,
        0.0,
        0.0,
        0.0,
        1.0
      ],
      "name": "b3af91ab31c54d70a6a2fcf66f205f41.fbx"
    },
    {
      "children": [
        3,
        5,
        7,
        9,
        11,
        13,
        15,
        17,
        19
      ],
      "name": "RootNode"
    },
    {
      "children": [
        4
      ],
      "matrix": [
        -65.15583280329096,
        -44.52713576570858,
        -61.41703047373549,
        0.0,
        -32.40134137821245,
        89.53957451233616,
        -30.542088974418615,
        0.0,
        68.59205472129975,
        -1.0718647115348782e-05,
        -72.7676336239627,
        0.0,
        735.88916015625,
        495.8309326171875,
        692.5791015625,
        1.0
      ],
      "name": "Camera"
    },
    {
      "name": "Object_4"
    },
    {
      "children": [
        6
      ],
      "matrix": [
        103.83399507912839,
        0.8228920688313205,
        -0.5960295827566313,
        0.0,
        -0.6264152310672189,
        0.20604223650449668,
        -108.84299601006522,
        0.0,
        -3.772508936603274,
        476.6912691171564,
        0.9240988943284365,
        0.0,
        -37.57456588745117,
        -223.5911102294922,
        77.17597198486328,
        1.0
      ],
      "name": "Sphere"
    },
    {
      "mesh": 0,
      "name": "Sphere__0"
    },
    {
      "children": [
        8
      ],
      "matrix": [
        112.90164184570313,
        0.0,
        0.0,
        0.0,
        -0.0,
        -1.958139707830329e-05,
        -120.18975830077966,
        0.0,
        0.0,
        120.18975830077966,
        -1.958139707830329e-05,
        0.0,
        -44.13575744628906,
        -562.0781860351563,
        77.17605590820313,
        1.0
      ],
      "name": "Cylinder"
    },
    {
      "mesh": 1,
      "name": "Cylinder__0"
    },
    {
      "children": [
        10
      ],
      "matrix": [
        25.892908096313477,
        0.0,
        0.0,
        0.0,
        -0.0,
        -1.958139707830329e-05,
        -120.18975830077966,
        0.0,
        0.0,
        72.56806945800686,
        -1.1822839178252244e-05,
        0.0,
        -37.58327865600586,
        198.0339813232422,
        77.17601013183594,
        1.0
      ],
      "name": "Sphere.001"
    },
    {
      "mesh": 2,
      "name": "Sphere.001__0"
    },
    {
      "children": [
        12
      ],
      "matrix": [
        -32.312034571387635,
        -6.815016947750833e-07,
        -8.025034673121507,
        0.0,
        -9.894706178905036,
        1.267771466775618e-05,
        39.84008806807218,
        0.0,
        3.6828891524108114e-06,
        67.48372650146162,
        -2.0559651432052524e-05,
        0.0,
        5.542924880981445,
        -555.2074584960938,
        -46.55650329589844,
        1.0
      ],
      "name": "Cube.001"
    },
    {
      "mesh": 3,
      "name": "Cube.001__0"
    },
    {
      "children": [
        14
      ],
      "matrix": [
        6.382519974611266,
        -2.1663363255631476e-06,
        32.676167835449625,
        0.0,
        40.28905792359811,
        -2.0362757963857347e-05,
        -7.8695187957967345,
        0.0,
        3.369570771523256e-05,
        67.4837265014564,
        -2.1076853326909374e-06,
        0.0,
        -175.4772491455078,
        -555.2074584960938,
        92.52513885498047,
        1.0
      ],
      "name": "Cube.002"
    },
    {
      "mesh": 4,
      "name": "Cube.002__0"
    },
    {
      "children": [
        16
      ],
      "matrix": [
        26.91729629510462,
        8.684563350743878e-07,
        -19.594078692525926,
        0.0,
        -24.159106773051047,
        2.3197551101075548e-06,
        -33.18848747317398,
        0.0,
        8.211649736441039e-07,
        67.48372650146472,
        4.119112305082598e-06,
        0.0,
        27.075979232788086,
        -555.2074584960938,
        197.80667114257813,
        1.0
      ],
      "name": "Cube.003"
    },
    {
      "mesh": 5,
      "name": "Cube.003__0"
    },
    {
      "children": [
        18
      ],
      "matrix": [
        100.0,
        0.0,
        0.0,
        0.0,
        -0.0,
        -1.629206793918314e-05,
        -99.99999999999868,
        0.0,
        0.0,
        99.99999999999868,
        -1.629206793918314e-05,
        0.0,
        -45.0494499206543,
        156.49786376953125,
        80.42020416259766,
        1.0
      ],
      "name": "Cylinder.002"
    },
    {
      "mesh": 6,
      "name": "Cylinder.002__0"
    },
    {
      "children": [
        20
      ],
      "matrix": [
        -0.7536890474765504,
        -71.59114204279494,
        3.2820148919852907,
        0.0,
        71.65105666130229,
        -0.6924412778493741,
        1.3497668087230352,
        0.0,
        -2.1170847469088527,
        5.2990003296737145,
        115.10181218941779,
        0.0,
        -40.40910339355469,
        -99.48971557617188,
        79.71519470214844,
        1.0
      ],
      "name": "Cylinder.003"
    },
    {
      "mesh": 7,
      "name": "Cylinder.003__0"
    }
  ],
  "scene": 0,
  "scenes": [
    {
      "name": "Sketchfab_Scene",
      "nodes": [
        0
      ]
    }
  ]
}
